<?xml version="1.0" encoding="utf-8"?>
<!-- Generator: Adobe Illustrator 15.1.0, SVG Export Plug-In . SVG Version: 6.00 Build 0)  -->
<!DOCTYPE svg PUBLIC "-//W3C//DTD SVG 1.1//EN" "http://www.w3.org/Graphics/SVG/1.1/DTD/svg11.dtd">
<svg version="1.1" id="레이어_1" xmlns="http://www.w3.org/2000/svg" xmlns:xlink="http://www.w3.org/1999/xlink" x="0px"
	 y="0px" width="566.93px" height="283.46px" viewBox="0 0 566.93 283.46" enable-background="new 0 0 566.93 283.46"
	 xml:space="preserve">
<g>
	<path fill="#FFFFFF" d="M32.612,161.778c-3.629,0-5.45-1.396-5.45-4.2v-7.824c0-2.879,1.972-4.317,5.904-4.317h96.119
		c4.036,0,6.054,1.366,6.054,4.089V177.3c0,2.724-1.964,4.089-5.902,4.089h-12.412c-3.629,0-5.449-1.397-5.449-4.203v-15.407H32.612
		z M128.883,90.219h7.875c3.729,0,5.602,1.48,5.602,4.433v9.46c0,2.878-1.92,4.318-5.753,4.318h-7.724v25.918
		c0,3.266-2.372,4.903-7.113,4.903h-9.23c-4.543,0-6.817-1.439-6.817-4.318v-3.619c-28.151,4.203-52.573,6.3-73.261,6.3
		c-3.432,0-5.147-1.241-5.147-3.734V71.778c0-2.962,2.123-4.444,6.362-4.444h9.987c4.136,0,6.207,1.45,6.207,4.33v48.208
		c20.787-0.855,39.404-3.233,55.853-7.124V69.212c0-2.806,2.124-4.204,6.363-4.204h10.744c4.036,0,6.054,1.439,6.054,4.318V90.219z"
		/>
	<path fill="#FFFFFF" d="M271.928,100.962v9.45c0,3.191-1.966,4.787-5.904,4.787h-7.87v61.518c0,3.19-2.117,4.786-6.357,4.786
		H239.99c-4.036,0-6.054-1.479-6.054-4.433v-3.39c-29.772,3.505-54.19,5.298-73.262,5.371c-4.846,0-7.264-1.866-7.264-5.602V72.122
		c0-3.191,2.116-4.787,6.356-4.787h56.307c4.037,0,6.055,1.481,6.055,4.444v7.583c0,3.035-2.118,4.558-6.358,4.558h-39.207v13.538
		h36.939c3.834,0,5.747,1.439,5.747,4.318v7.469c0,3.035-2.118,4.558-6.357,4.558h-36.329v48.448
		c19.984-0.083,39.104-1.866,57.372-5.372V69.212c0-2.806,1.867-4.204,5.6-4.204h12.414c4.135,0,6.205,1.397,6.205,4.204v27.775
		h8.021C270.008,96.988,271.928,98.313,271.928,100.962z"/>
	<path fill="#FFFFFF" d="M313.097,83.804c-0.397,2.722-0.805,5.403-1.211,8.052c26.032-2.566,39.051,18.17,39.051,62.216v21.717
		c0,2.876-2.065,4.316-6.206,4.316h-10.439c-4.236,0-6.354-1.44-6.354-4.316v-22.646c0-30.039-6.309-43.619-18.93-40.74
		c-2.42,21.09-3.526,42.18-3.328,63.269c0,3.036-2.115,4.548-6.352,4.548h-11.056c-4.234,0-6.352-1.597-6.352-4.786
		c-0.407-35.172,2.014-65.721,7.259-91.63h-4.089c-3.326,0-4.984-1.408-4.984-4.203v-8.063c0-2.795,1.855-4.204,5.601-4.204H340.8
		c4.035,0,6.057,1.408,6.057,4.204v7.479c0,3.192-2.073,4.788-6.203,4.788H313.097z M360.177,87.298V68.972
		c0-2.638,1.962-3.963,5.904-3.963h9.99c3.934,0,5.904,1.325,5.904,3.963v108.453c0,2.723-2.021,4.078-6.06,4.078h-9.688
		c-4.036,0-6.051-1.512-6.051-4.546v-71.093h-7.873c-3.631,0-5.447-1.482-5.447-4.433v-9.46c0-3.108,1.306-4.673,3.934-4.673
		H360.177z M388.788,68.972c0-2.638,1.815-3.963,5.444-3.963h10.743c3.837,0,5.758,1.397,5.758,4.204v108.442
		c0,2.566-1.921,3.849-5.758,3.849h-10.89c-3.535,0-5.298-1.397-5.298-4.203V68.972z"/>
	<path fill="#FFFFFF" d="M456.896,112.863c3.828,0,5.747,1.521,5.747,4.557v40.041h47.687v-87.55c0-3.275,2.064-4.902,6.206-4.902
		h11.806c4.038,0,6.051,1.355,6.051,4.079v32.344h7.72c4.036,0,6.058,1.158,6.058,3.494v11.213c0,2.722-1.72,4.078-5.152,4.078
		h-8.625v56.271c0,3.266-1.919,4.902-5.746,4.902h-12.57c-3.837,0-5.746-1.667-5.746-5.017v-1.753h-79.623
		c-3.631,0-5.444-1.364-5.444-4.088v-8.99c0-2.722,1.813-4.08,5.444-4.08h8.479V117.65c0-3.192,2.012-4.787,6.051-4.787H456.896z
		 M431.311,83.804c-3.933,0-5.903-1.481-5.903-4.443v-7.583c0-2.962,1.971-4.444,5.903-4.444h61.455c4.244,0,6.361,1.68,6.361,5.028
		v68.057c0,2.952-2.117,4.433-6.361,4.433h-10.898c-4.132,0-6.3-1.324-6.508-3.974V83.804H431.311z"/>
</g>
<g>
	<path fill="#FFFFFF" d="M149.67,235.919c0,0.874-0.615,1.314-1.856,1.314h-4.13c-1.172,0-1.762-0.44-1.762-1.314v-5.353h-10.536
		c-1.361,0-2.043-0.479-2.043-1.461v-2.564c0-0.97,0.682-1.462,2.043-1.462h29.007c1.361,0,2.043,0.513,2.043,1.534v2.348
		c0,1.072-0.698,1.605-2.09,1.605H149.67V235.919z M161.044,201.424c0.992,0,1.424,0.512,1.3,1.534
		c0,8.917-1.195,15.384-3.574,19.411c-0.463,0.823-1.376,1.241-2.736,1.241h-3.531c-0.836,0-1.362-0.167-1.577-0.51
		c-0.218-0.345-0.125-0.795,0.277-1.357c2.164-2.732,3.343-7.458,3.525-14.165c0.095-0.616-0.229-0.918-0.969-0.918h-22.743
		c-1.023,0-1.533-0.416-1.533-1.252v-2.699c0-0.855,0.51-1.285,1.533-1.285H161.044z"/>
	<path fill="#FFFFFF" d="M181.003,223.976v-1.973h-10.952c-1.392,0-2.092-0.531-2.092-1.575v-2.158c0-1.052,0.652-1.574,1.951-1.574
		h30.815c1.144,0.021,1.716,0.489,1.716,1.387v2.346c0,1.044-0.615,1.575-1.856,1.575h-12.249v1.973h12.249
		c1.241,0,1.856,0.427,1.856,1.283v10.292c0,1.097-0.647,1.651-1.944,1.651h-30.404c-1.423,0-2.133-0.461-2.133-1.358v-10.472
		c0-0.929,0.667-1.396,1.998-1.396H181.003z M185.228,200.32c11.446-0.021,17.167,2.564,17.167,7.771
		c0,4.975-5.721,7.467-17.167,7.467c-11.484,0-17.222-2.503-17.222-7.509C168.006,202.896,173.744,200.32,185.228,200.32z
		 M175.062,232.361h20.188v-3.548h-20.188V232.361z M185.274,210.542c6.493,0,9.741-0.856,9.741-2.567
		c0-1.782-3.264-2.669-9.787-2.669c-6.53,0-9.794,0.918-9.794,2.743C175.434,209.706,178.713,210.542,185.274,210.542z"/>
	<path fill="#FFFFFF" d="M217.617,215.705c1.18,0,1.769,0.478,1.769,1.428v12.558h14.618v-27.462c0-1.022,0.63-1.533,1.902-1.533
		h3.62c1.236,0,1.856,0.427,1.856,1.272v10.148h2.367c1.236,0,1.857,0.363,1.857,1.097v3.514c0,0.855-0.526,1.281-1.58,1.281h-2.644
		v17.649c0,1.033-0.59,1.545-1.764,1.545h-3.853c-1.178,0-1.762-0.534-1.762-1.575v-0.554h-24.413c-1.115,0-1.674-0.43-1.674-1.281
		v-2.82c0-0.853,0.559-1.281,1.674-1.281h2.598v-12.483c0-1.004,0.62-1.502,1.856-1.502H217.617z M209.774,206.588
		c-1.205,0-1.81-0.47-1.81-1.398v-2.377c0-0.928,0.605-1.389,1.81-1.389h18.843c1.304,0,1.95,0.523,1.95,1.576v21.341
		c0,0.929-0.646,1.396-1.95,1.396h-3.338c-1.271,0-1.935-0.416-1.998-1.241v-17.907H209.774z"/>
	<path fill="#FFFFFF" d="M259.157,206.588c-0.126,0.897-0.267,1.794-0.423,2.671c8.667-1.461,12.995,4.995,12.995,19.369v6.811
		c0,0.907-0.631,1.354-1.903,1.354h-3.202c-1.298,0-1.946-0.447-1.946-1.354v-7.103c0-10.233-2.277-14.364-6.826-12.412
		c-0.71,6.497-1.034,12.985-0.974,19.483c0,0.949-0.648,1.431-1.946,1.431h-3.39c-1.298,0-1.951-0.502-1.951-1.503
		c-0.125-11.035,0.62-20.622,2.228-28.747h-1.018c-1.021,0-1.533-0.437-1.533-1.324v-2.524c0-0.876,0.574-1.315,1.715-1.315h19.077
		c1.238,0,1.858,0.439,1.858,1.315v2.347c0,1.001-0.637,1.502-1.904,1.502H259.157z M284.73,210.718c1.294,0,1.941,0.46,1.941,1.357
		v2.825c0,1.023-0.596,1.533-1.805,1.533h-2.274v19.369c0,0.929-0.637,1.399-1.908,1.399h-3.568c-1.303,0-1.949-0.461-1.949-1.358
		v-33.949c0-0.824,0.584-1.24,1.762-1.24h3.808c1.23,0,1.856,0.437,1.856,1.313v8.75H284.73z"/>
	<path fill="#FFFFFF" d="M332.532,234.083c-0.585,0.74-1.325,0.822-2.221,0.259c-0.438-0.269-0.96-0.581-1.587-0.949l-2.043-1.21
		c-0.741,0.585-1.564,1.169-2.482,1.743c-0.908,0.563-1.826,1.075-2.754,1.513c-2.077,0.907-4.191,1.481-6.363,1.742
		c-2.17,0.258-4.118,0.146-5.872-0.333c-1.741-0.471-3.254-1.307-4.525-2.506c-1.262-1.201-1.9-2.939-1.9-5.236
		c0-3.983,2.505-7.54,7.521-10.689c-0.929-1.178-1.731-2.336-2.389-3.485c-0.668-1.146-1.115-2.251-1.346-3.325
		c-0.239-1.074-0.239-2.107,0-3.077c0.23-0.981,0.792-1.899,1.689-2.743c1.085-1.033,2.38-1.782,3.869-2.253
		c1.503-0.48,3.046-0.688,4.622-0.647c1.585,0.052,3.076,0.396,4.506,1.021c1.419,0.638,2.628,1.556,3.618,2.754
		c0.771,1.002,1.105,2.024,1.003,3.076c-0.115,1.046-0.513,2.118-1.19,3.204c-0.677,1.083-1.533,2.149-2.576,3.181
		c-1.031,1.043-2.106,2.046-3.223,3.025c1.7,1.805,3.995,3.774,6.863,5.892c1.304-1.292,2.367-2.585,3.213-3.879
		c0.521-0.908,1.323-1.074,2.408-0.511l2.045,1.095c0.929,0.49,1.137,1.188,0.646,2.085c-1.303,1.857-2.399,3.286-3.297,4.288
		c1.21,0.708,2.4,1.357,3.579,1.938c0.771,0.368,0.877,0.908,0.323,1.62L332.532,234.083z M310.213,230.274
		c1.261,1.564,2.846,2.128,4.756,1.691c1.897-0.44,4.057-1.544,6.477-3.296c-2.723-2.005-5.079-3.954-7.062-5.862
		c-1.981,1.168-3.348,2.441-4.099,3.806C309.523,227.981,309.503,229.202,310.213,230.274z M315.73,208.162
		c-1.054,0.168-1.806,0.522-2.275,1.066c-0.24,0.218-0.417,0.487-0.51,0.821c-0.095,0.325-0.095,0.722-0.022,1.189
		c0.084,0.461,0.282,0.991,0.605,1.587c0.322,0.603,0.794,1.292,1.419,2.074c0.678-0.51,1.283-0.99,1.805-1.429
		c0.532-0.438,0.98-0.844,1.346-1.209c0.74-0.804,1.136-1.491,1.188-2.065c0.041-0.573-0.115-1.023-0.469-1.346
		c-0.356-0.313-0.825-0.531-1.408-0.658C316.814,208.08,316.261,208.06,315.73,208.162z"/>
	<path fill="#FFFFFF" d="M365.711,207.026c0.188-0.563-0.084-0.844-0.793-0.844h-10.576c-1.084-0.021-1.628-0.513-1.628-1.462v-2.23
		c0-1.077,0.544-1.607,1.628-1.575h17.397c1.335,0,1.921,0.646,1.763,1.938c0,2.775-0.103,5.404-0.325,7.864h5.248v-8.75
		c0-0.877,0.615-1.313,1.857-1.313h3.807c1.084,0,1.667,0.426,1.764,1.281v33.983c0,0.854-0.647,1.283-1.953,1.283h-3.523
		c-1.304,0-1.951-0.461-1.951-1.358v-19.41h-6.08c-1.701,8.646-5.371,15.261-10.992,19.851c-0.784,0.604-2.015,0.918-3.716,0.918
		h-2.606c-1.011,0-1.626-0.241-1.827-0.723c-0.206-0.468,0.16-1.041,1.088-1.697c5.267-4.538,8.696-10.265,10.305-17.179h-10.254
		c-1.084-0.021-1.628-0.513-1.628-1.462v-2.231c0-1.074,0.544-1.595,1.628-1.574h11.139
		C365.627,210.624,365.711,208.852,365.711,207.026z"/>
	<path fill="#FFFFFF" d="M419.229,233.863c-7.614,1.709-16.304,2.564-26.086,2.564c-1.087,0-1.626-0.416-1.626-1.24v-2.345
		c0-0.952,0.561-1.44,1.679-1.461l1.156-0.042v-24.647h-1.438c-0.929,0-1.397-0.428-1.397-1.284v-2.743
		c0-0.854,0.539-1.282,1.626-1.282h21.862c1.084,0,1.626,0.429,1.626,1.282v2.86c0,0.78-0.573,1.167-1.722,1.167h-2.229v23.114
		c2.2-0.344,4.379-0.743,6.549-1.179v-26.765c0-0.804,0.521-1.209,1.573-1.209h4.276c1.013,0,1.523,0.405,1.523,1.209v33.719
		c0,1.076-0.721,1.62-2.18,1.62h-3.055c-1.43,0-2.139-0.481-2.139-1.431V233.863z M401.548,231.007
		c1.326-0.097,2.66-0.22,3.986-0.367v-23.947h-3.986V231.007z"/>
</g>
</svg>
