<?xml version="1.0" encoding="utf-8"?>
<!-- Generator: Adobe Illustrator 15.1.0, SVG Export Plug-In . SVG Version: 6.00 Build 0)  -->
<!DOCTYPE svg PUBLIC "-//W3C//DTD SVG 1.1//EN" "http://www.w3.org/Graphics/SVG/1.1/DTD/svg11.dtd">
<svg version="1.1" id="레이어_1" xmlns="http://www.w3.org/2000/svg" xmlns:xlink="http://www.w3.org/1999/xlink" x="0px"
	 y="0px" width="768px" height="768px" viewBox="0 0 768 768" enable-background="new 0 0 768 768" xml:space="preserve">
<path fill="#895B24" stroke="#040000" stroke-width="20" stroke-linecap="round" stroke-linejoin="round" stroke-miterlimit="10" d="
	M590.745,650.497c-2.557-2.554-11.973-4.347-25.85-5.547c0.564,3.204,0.07,6.283-2.048,8.979
	c-12.281,15.628-38.497,38.216-24.563,42.394c17.942,5.422,41.817-9.458,59.167-32.285
	C596.379,658.938,594.401,654.169,590.745,650.497z"/>
<path fill="#895B24" stroke="#040000" stroke-width="20" stroke-linecap="round" stroke-linejoin="round" stroke-miterlimit="10" d="
	M278.985,647.137c0,0-14.436-1.03-32.188-6.025c-1.829,7.058-4.411,13.579-8.047,18.322c-14.527,19.004-27.318,40.35-2.238,42.467
	c10.51,0.889,25.723-14.246,39.791-32.556C277.001,657.329,278.985,647.137,278.985,647.137z"/>
<path fill="#B57D38" stroke="#040000" stroke-width="20" stroke-linecap="round" stroke-linejoin="round" stroke-miterlimit="10" d="
	M588.557,206.802c-74.754-4.39-82.291,93.621-94.999,158.703c-10.953-64.601,0-165.952-88.008-165.952
	c-94.159,0-94.638,167.971-94.715,167.632c-10.878-45.36,19.552-145.849-170.993-132.43
	c-65.556,4.609-107.287,38.555-107.287,95.542c0,57.007,77.11,41.914,115.665,92.216c38.57,50.287,18.44,132.424,38.57,176.004
	c20.096,43.596,92.195,48.62,92.195,48.62s-11.125,56.896,10.052,60.354c18.445,3.021,33.53-60.354,33.53-60.354
	s253.143-11.731,268.178,3.36c15.05,15.078,1.708,48.608,13.453,48.608c11.731,0,41.917-35.209,58.66-107.295
	c10.673-45.798,17.137-73.185,17.137-200.866C674.265,301.243,664.539,211.284,588.557,206.802z"/>
<path fill="none" stroke="#040000" stroke-width="20" stroke-linecap="round" stroke-linejoin="round" stroke-miterlimit="10" d="
	M679.868,428.047c0,0-3.896,40.829,30.34,41.393c30.339,0.51,25.793-44.159,25.793-44.159"/>
<path fill="#CD5D3F" d="M264.741,340.616c0,17.942-15.319,32.513-34.236,32.513c-18.918,0-34.243-14.57-34.243-32.513
	c0-17.958,15.325-32.513,34.243-32.513C249.422,308.104,264.741,322.658,264.741,340.616z"/>
<path fill="#FFFFFF" stroke="#040000" stroke-width="20" stroke-linecap="round" stroke-linejoin="round" stroke-miterlimit="10" d="
	M318.43,160.186c1.566-24.946-16.752-46.404-41.429-47.957c-9.648-0.607-18.542,1.968-26.172,6.762
	c-5.549-21.869-23.019-38.408-44.859-39.778c-22.483-1.418-42.474,13.653-50.267,35.654c-7.432-7.863-17.597-13.051-29.131-13.771
	c-24.496-1.546-46.44,17.386-48.014,42.333c-1.327,21.126,13.475,39.804,29.894,45.797l-2.718,43.257c0,0-1.78,28.326,83.541,33.691
	c76.482,4.8,80.421-23.379,80.421-23.379l2.534-40.27C299.061,203.062,316.905,184.398,318.43,160.186z"/>
<path fill="none" stroke="#040000" stroke-width="10" stroke-linecap="round" stroke-linejoin="round" stroke-miterlimit="10" d="
	M55.186,325.341c0,0,23.293,32.343,60.622,40.066c54.366,11.252,95.674-19.835,95.674-19.835"/>
<path fill="#040000" d="M123.643,316.234c0,8.273-6.713,14.993-14.979,14.993c-8.28,0-14.993-6.72-14.993-14.993
	s6.713-14.992,14.993-14.992C116.929,301.243,123.643,307.961,123.643,316.234z"/>
<line fill="#FFFFFF" stroke="#040000" stroke-width="20" stroke-linecap="round" stroke-linejoin="round" stroke-miterlimit="10" x1="149.902" y1="254.866" x2="153.246" y2="211.284"/>
<line fill="#FFFFFF" stroke="#040000" stroke-width="20" stroke-linecap="round" stroke-linejoin="round" stroke-miterlimit="10" x1="215.415" y1="266.506" x2="220.595" y2="214.602"/>
<path fill="#040000" d="M170.577,319.595c0,8.272-6.708,14.979-14.979,14.979c-8.28,0-14.985-6.707-14.985-14.979
	c0-8.273,6.706-14.993,14.985-14.993C163.869,304.602,170.577,311.322,170.577,319.595z"/>
<path fill="none" stroke="#040000" stroke-width="10" stroke-linecap="round" stroke-linejoin="round" stroke-miterlimit="10" d="
	M215.146,325.341c0,0-8.006,6.141-3.665,20.231c3.24,10.503,19.42,17.59,19.42,17.59"/>
</svg>
