<?xml version="1.0" encoding="utf-8"?>
<!-- Generator: Adobe Illustrator 15.1.0, SVG Export Plug-In . SVG Version: 6.00 Build 0)  -->
<!DOCTYPE svg PUBLIC "-//W3C//DTD SVG 1.1//EN" "http://www.w3.org/Graphics/SVG/1.1/DTD/svg11.dtd">
<svg version="1.1" id="레이어_1" xmlns="http://www.w3.org/2000/svg" xmlns:xlink="http://www.w3.org/1999/xlink" x="0px"
	 y="0px" width="283.46px" height="283.46px" viewBox="0 0 283.46 283.46" enable-background="new 0 0 283.46 283.46"
	 xml:space="preserve">
<g>
	<path fill="#040000" d="M46.766,255.169c-1.365,0-2.047-0.526-2.047-1.579v-2.937c0-1.081,0.739-1.623,2.217-1.623h36.099
		c1.516,0,2.274,0.512,2.274,1.535V261c0,1.022-0.739,1.534-2.217,1.534h-4.662c-1.364,0-2.047-0.526-2.047-1.578v-5.787H46.766z
		 M82.922,228.294h2.956c1.401,0,2.104,0.555,2.104,1.666v3.551c0,1.082-0.721,1.622-2.161,1.622h-2.899v9.733
		c0,1.228-0.891,1.841-2.672,1.841h-3.468c-1.705,0-2.558-0.54-2.558-1.622v-1.359c-10.574,1.578-19.746,2.368-27.515,2.368
		c-1.289,0-1.933-0.468-1.933-1.403v-23.324c0-1.11,0.796-1.666,2.388-1.666h3.752c1.554,0,2.331,0.541,2.331,1.622v18.107
		c7.807-0.321,14.8-1.213,20.978-2.675v-16.353c0-1.053,0.796-1.579,2.388-1.579h4.036c1.516,0,2.274,0.542,2.274,1.622V228.294z"/>
	<path fill="#040000" d="M137.781,232.327v3.551c0,1.199-0.739,1.798-2.217,1.798h-2.956v23.104c0,1.198-0.796,1.798-2.388,1.798
		h-4.434c-1.517,0-2.274-0.556-2.274-1.666v-1.271c-11.181,1.315-20.352,1.987-27.515,2.017c-1.819,0-2.729-0.701-2.729-2.104
		v-38.055c0-1.198,0.796-1.798,2.388-1.798h21.148c1.516,0,2.274,0.556,2.274,1.666v2.85c0,1.141-0.796,1.71-2.388,1.71h-14.724
		v5.086h13.872c1.44,0,2.16,0.541,2.16,1.622v2.806c0,1.141-0.796,1.71-2.388,1.71h-13.644v18.194
		c7.504-0.028,14.686-0.701,21.546-2.017v-32.925c0-1.053,0.701-1.579,2.104-1.579h4.662c1.554,0,2.331,0.526,2.331,1.579v10.434
		h3.013C137.06,230.836,137.781,231.334,137.781,232.327z"/>
	<path fill="#040000" d="M154.38,225.882c-0.151,1.023-0.304,2.032-0.454,3.025c9.777-0.965,14.666,6.825,14.666,23.368v8.154
		c0,1.081-0.777,1.622-2.33,1.622h-3.923c-1.592,0-2.388-0.541-2.388-1.622v-8.506c0-11.281-2.369-16.382-7.105-15.301
		c-0.91,7.922-1.328,15.843-1.252,23.763c0,1.14-0.795,1.71-2.387,1.71h-4.15c-1.592,0-2.388-0.6-2.388-1.798
		c-0.152-13.211,0.758-24.683,2.729-34.416h-1.535c-1.251,0-1.876-0.525-1.876-1.578v-3.025c0-1.052,0.701-1.578,2.103-1.578h20.693
		c1.516,0,2.274,0.526,2.274,1.578v2.807c0,1.198-0.777,1.797-2.331,1.797H154.38z M172.061,227.197v-6.883
		c0-0.993,0.738-1.491,2.217-1.491h3.752c1.479,0,2.217,0.498,2.217,1.491v40.729c0,1.023-0.758,1.535-2.273,1.535h-3.639
		c-1.516,0-2.273-0.57-2.273-1.71v-26.7h-2.957c-1.363,0-2.046-0.555-2.046-1.666v-3.551c0-1.169,0.492-1.754,1.478-1.754H172.061z
		 M182.805,220.314c0-0.993,0.682-1.491,2.047-1.491h4.036c1.44,0,2.16,0.526,2.16,1.579v40.729c0,0.965-0.72,1.447-2.16,1.447
		h-4.093c-1.328,0-1.99-0.526-1.99-1.578V220.314z"/>
	<path fill="#040000" d="M209.523,236.799c1.439,0,2.16,0.57,2.16,1.71v15.038h17.907v-32.882c0-1.228,0.776-1.842,2.331-1.842
		h4.434c1.516,0,2.274,0.512,2.274,1.535v12.144h2.899c1.516,0,2.273,0.438,2.273,1.315v4.209c0,1.023-0.645,1.534-1.933,1.534
		h-3.24v21.132c0,1.228-0.72,1.842-2.16,1.842h-4.719c-1.44,0-2.16-0.629-2.16-1.886v-0.657h-29.903
		c-1.363,0-2.046-0.512-2.046-1.534v-3.376c0-1.022,0.683-1.534,2.046-1.534h3.184v-14.95c0-1.198,0.758-1.798,2.274-1.798H209.523z
		 M199.916,225.882c-1.479,0-2.218-0.555-2.218-1.666v-2.85c0-1.11,0.739-1.666,2.218-1.666h23.08c1.592,0,2.389,0.629,2.389,1.886
		v25.56c0,1.111-0.797,1.666-2.389,1.666h-4.093c-1.555,0-2.369-0.497-2.444-1.49v-21.439H199.916z"/>
</g>
<path fill="#8B5B24" stroke="#040000" stroke-width="5" stroke-linecap="round" stroke-linejoin="round" stroke-miterlimit="10" d="
	M202.987,191c-0.762-0.764-3.574-1.297-7.713-1.656c0.173,0.961,0.023,1.874-0.607,2.678c-3.666,4.667-11.482,11.4-7.333,12.65
	c5.354,1.613,12.479-2.826,17.652-9.635C204.667,193.516,204.079,192.095,202.987,191z"/>
<path fill="#8B5B24" stroke="#040000" stroke-width="5" stroke-linecap="round" stroke-linejoin="round" stroke-miterlimit="10" d="
	M110,190c0,0-4.306-0.304-9.598-1.8c-0.547,2.11-1.318,4.05-2.402,5.467c-4.333,5.666-8.148,12.03-0.667,12.666
	c3.132,0.267,7.671-4.251,11.867-9.71C109.407,193.04,110,190,110,190z"/>
<path fill="#B67E37" stroke="#040000" stroke-width="5" stroke-linecap="round" stroke-linejoin="round" stroke-miterlimit="10" d="
	M202.334,58.667C180.036,57.354,177.79,86.585,174,106c-3.268-19.269,0-49.5-26.25-49.5c-28.083,0-28.226,50.102-28.25,50
	c-3.245-13.524,5.834-43.5-51-39.5c-19.554,1.376-32,11.5-32,28.5S59.5,108,71,123s5.5,39.5,11.5,52.5S110,190,110,190
	s-3.318,16.966,3,18c5.5,0.9,10-18,10-18s75.5-3.5,79.987,1s0.513,14.5,4.013,14.5s12.5-10.5,17.5-32
	c3.178-13.665,5.107-21.834,5.107-59.916C227.897,86.834,225,60,202.334,58.667z"/>
<path fill="none" stroke="#040000" stroke-width="5" stroke-linecap="round" stroke-linejoin="round" stroke-miterlimit="10" d="
	M229.572,124.653c0,0-1.165,12.178,9.046,12.347c9.049,0.149,7.694-13.173,7.694-13.173"/>
<ellipse fill="#CE5D3F" cx="95.541" cy="98.576" rx="10.211" ry="9.696"/>
<path fill="#FFFFFF" stroke="#040000" stroke-width="5" stroke-linecap="round" stroke-linejoin="round" stroke-miterlimit="10" d="
	M121.766,44.761c0.468-7.441-4.997-13.841-12.358-14.303c-2.876-0.181-5.529,0.586-7.806,2.016
	c-1.655-6.521-6.864-11.455-13.38-11.864c-6.705-0.421-12.667,4.072-14.994,10.635c-2.215-2.344-5.247-3.891-8.689-4.107
	c-7.304-0.459-13.849,5.186-14.316,12.627c-0.396,6.299,4.018,11.871,8.915,13.66l-0.811,12.901c0,0-0.531,8.447,24.919,10.046
	c22.811,1.433,23.985-6.973,23.985-6.973l0.754-12.009C115.991,57.549,121.312,51.983,121.766,44.761z"/>
<path fill="none" stroke="#040000" stroke-width="3" stroke-linecap="round" stroke-linejoin="round" stroke-miterlimit="10" d="
	M43.251,94.02c0,0,6.947,9.647,18.082,11.951c16.211,3.354,28.536-5.916,28.536-5.916"/>
<circle fill="#040000" cx="59.198" cy="91.304" r="4.469"/>
<line fill="#FFFFFF" stroke="#040000" stroke-width="5" stroke-linecap="round" stroke-linejoin="round" stroke-miterlimit="10" x1="71.5" y1="73" x2="72.5" y2="60"/>
<line fill="#FFFFFF" stroke="#040000" stroke-width="5" stroke-linecap="round" stroke-linejoin="round" stroke-miterlimit="10" x1="91.04" y1="76.472" x2="92.585" y2="60.992"/>
<circle fill="#040000" cx="73.198" cy="92.304" r="4.469"/>
<path fill="none" stroke="#040000" stroke-width="3" stroke-linecap="round" stroke-linejoin="round" stroke-miterlimit="10" d="
	M90.962,94.02c0,0-2.389,1.833-1.093,6.036c0.965,3.127,5.789,5.247,5.789,5.247"/>
</svg>
