<?xml version="1.0" encoding="utf-8"?>
<!-- Generator: Adobe Illustrator 15.1.0, SVG Export Plug-In . SVG Version: 6.00 Build 0)  -->
<!DOCTYPE svg PUBLIC "-//W3C//DTD SVG 1.1//EN" "http://www.w3.org/Graphics/SVG/1.1/DTD/svg11.dtd">
<svg version="1.1" id="레이어_1" xmlns="http://www.w3.org/2000/svg" xmlns:xlink="http://www.w3.org/1999/xlink" x="0px"
	 y="0px" width="566.93px" height="283.46px" viewBox="0 0 566.93 283.46" enable-background="new 0 0 566.93 283.46"
	 xml:space="preserve">
<g>
	<path d="M49.646,155.372c-3.418,0-5.132-1.313-5.132-3.955v-7.368c0-2.712,1.856-4.066,5.56-4.066h90.52
		c3.801,0,5.701,1.287,5.701,3.851v26.156c0,2.565-1.85,3.852-5.559,3.852h-11.689c-3.417,0-5.132-1.316-5.132-3.959v-14.51H49.646z
		 M140.309,87.981h7.416c3.511,0,5.276,1.395,5.276,4.175v8.909c0,2.71-1.808,4.066-5.418,4.066h-7.273v24.408
		c0,3.075-2.234,4.617-6.699,4.617h-8.693c-4.278,0-6.42-1.355-6.42-4.066v-3.409c-26.511,3.958-49.511,5.933-68.993,5.933
		c-3.232,0-4.847-1.168-4.847-3.517V70.616c0-2.79,1.999-4.185,5.992-4.185h9.405c3.895,0,5.845,1.365,5.845,4.077v45.399
		c19.576-0.805,37.109-3.045,52.599-6.709V68.199c0-2.643,2-3.959,5.993-3.959h10.118c3.801,0,5.701,1.355,5.701,4.066V87.981z"/>
	<path d="M275.021,98.099v8.899c0,3.005-1.853,4.508-5.561,4.508h-7.412v57.934c0,3.005-1.994,4.508-5.986,4.508h-11.12
		c-3.801,0-5.701-1.394-5.701-4.175v-3.192c-28.038,3.301-51.034,4.989-68.994,5.059c-4.563,0-6.841-1.758-6.841-5.275V70.939
		c0-3.005,1.993-4.508,5.986-4.508h53.026c3.802,0,5.703,1.395,5.703,4.185v7.141c0,2.858-1.995,4.292-5.988,4.292h-36.922v12.75
		H220c3.61,0,5.412,1.355,5.412,4.066v7.034c0,2.858-1.994,4.292-5.987,4.292h-34.212v45.625
		c18.819-0.078,36.825-1.757,54.029-5.059V68.199c0-2.643,1.758-3.959,5.274-3.959h11.69c3.894,0,5.843,1.316,5.843,3.959v26.157
		h7.554C273.213,94.356,275.021,95.604,275.021,98.099z"/>
	<path d="M313.791,81.941c-0.374,2.563-0.758,5.088-1.141,7.583c24.516-2.417,36.776,17.111,36.776,58.592v20.452
		c0,2.708-1.945,4.064-5.845,4.064h-9.831c-3.989,0-5.984-1.356-5.984-4.064V147.24c0-28.288-5.941-41.078-17.827-38.366
		c-2.279,19.861-3.321,39.723-3.134,59.583c0,2.859-1.992,4.283-5.981,4.283h-10.412c-3.987,0-5.981-1.504-5.981-4.507
		c-0.384-33.124,1.896-61.893,6.836-86.292h-3.851c-3.133,0-4.694-1.326-4.694-3.958v-7.593c0-2.632,1.747-3.958,5.274-3.958h51.885
		c3.8,0,5.703,1.326,5.703,3.958v7.043c0,3.006-1.952,4.509-5.842,4.509H313.791z M358.129,85.231V67.972
		c0-2.484,1.848-3.732,5.56-3.732h9.408c3.705,0,5.561,1.248,5.561,3.732v102.135c0,2.564-1.903,3.841-5.706,3.841h-9.124
		c-3.802,0-5.698-1.424-5.698-4.281v-66.951h-7.415c-3.419,0-5.13-1.396-5.13-4.175v-8.909c0-2.927,1.229-4.4,3.705-4.4H358.129z
		 M385.073,67.972c0-2.484,1.71-3.732,5.127-3.732h10.117c3.613,0,5.423,1.316,5.423,3.959v102.124c0,2.417-1.81,3.625-5.423,3.625
		h-10.255c-3.329,0-4.989-1.316-4.989-3.959V67.972z"/>
	<path d="M449.214,109.307c3.604,0,5.412,1.433,5.412,4.292v37.708h44.908v-82.45c0-3.084,1.944-4.617,5.845-4.617h11.118
		c3.803,0,5.698,1.276,5.698,3.841v30.459h7.27c3.802,0,5.705,1.09,5.705,3.29v10.56c0,2.563-1.619,3.84-4.853,3.84h-8.122v52.993
		c0,3.075-1.808,4.617-5.411,4.617h-11.839c-3.613,0-5.411-1.57-5.411-4.725v-1.651H424.55c-3.419,0-5.127-1.284-5.127-3.85v-8.466
		c0-2.563,1.708-3.843,5.127-3.843h7.985v-37.491c0-3.007,1.895-4.508,5.698-4.508H449.214z M425.118,81.941
		c-3.703,0-5.56-1.396-5.56-4.185v-7.141c0-2.79,1.856-4.185,5.56-4.185h57.875c3.997,0,5.991,1.582,5.991,4.735v64.092
		c0,2.779-1.994,4.174-5.991,4.174h-10.264c-3.891,0-5.933-1.247-6.129-3.742V81.941H425.118z"/>
</g>
<g>
	<path d="M136.653,228.108c0,0.957-0.674,1.441-2.035,1.441h-4.527c-1.285,0-1.931-0.484-1.931-1.441v-5.867h-11.547
		c-1.493,0-2.24-0.524-2.24-1.601v-2.812c0-1.063,0.748-1.601,2.24-1.601h31.792c1.492,0,2.239,0.562,2.239,1.681v2.573
		c0,1.175-0.765,1.759-2.291,1.759h-11.701V228.108z M149.119,190.301c1.088,0,1.561,0.561,1.425,1.681
		c0,9.773-1.309,16.861-3.917,21.275c-0.508,0.903-1.508,1.36-2.998,1.36h-3.871c-0.916,0-1.493-0.183-1.728-0.558
		c-0.239-0.378-0.137-0.873,0.303-1.488c2.372-2.995,3.665-8.174,3.864-15.525c0.104-0.676-0.251-1.007-1.062-1.007h-24.927
		c-1.121,0-1.681-0.456-1.681-1.372v-2.958c0-0.938,0.56-1.408,1.681-1.408H149.119z"/>
	<path d="M170.995,215.018v-2.161h-12.003c-1.526,0-2.292-0.583-2.292-1.728v-2.365c0-1.153,0.714-1.726,2.139-1.726h33.774
		c1.253,0.022,1.88,0.536,1.88,1.52v2.571c0,1.145-0.674,1.728-2.035,1.728h-13.425v2.161h13.425c1.36,0,2.035,0.468,2.035,1.406
		v11.281c0,1.201-0.709,1.81-2.131,1.81h-33.324c-1.56,0-2.338-0.506-2.338-1.489v-11.478c0-1.018,0.731-1.53,2.189-1.53H170.995z
		 M175.626,189.091c12.545-0.022,18.816,2.811,18.816,8.517c0,5.452-6.271,8.185-18.816,8.185c-12.587,0-18.876-2.745-18.876-8.23
		C156.75,191.913,163.039,189.091,175.626,189.091z M164.483,224.209h22.127v-3.889h-22.127V224.209z M175.677,200.294
		c7.116,0,10.676-0.938,10.676-2.814c0-1.953-3.577-2.925-10.727-2.925c-7.158,0-10.735,1.007-10.735,3.007
		C164.891,199.378,168.485,200.294,175.677,200.294z"/>
	<path d="M211.125,205.952c1.293,0,1.939,0.523,1.939,1.565v13.764h16.022v-30.099c0-1.122,0.69-1.682,2.085-1.682h3.968
		c1.354,0,2.035,0.469,2.035,1.396v11.123h2.594c1.355,0,2.035,0.398,2.035,1.201v3.852c0,0.938-0.576,1.404-1.731,1.404h-2.897
		v19.345c0,1.133-0.646,1.693-1.934,1.693h-4.223c-1.291,0-1.931-0.585-1.931-1.727v-0.606H202.33c-1.223,0-1.834-0.472-1.834-1.404
		v-3.092c0-0.934,0.612-1.404,1.834-1.404h2.847v-13.683c0-1.1,0.679-1.646,2.034-1.646H211.125z M202.529,195.96
		c-1.321,0-1.984-0.515-1.984-1.533v-2.604c0-1.017,0.663-1.521,1.984-1.521h20.653c1.429,0,2.137,0.574,2.137,1.727v23.392
		c0,1.017-0.708,1.528-2.137,1.528h-3.659c-1.394,0-2.12-0.455-2.19-1.36V195.96H202.529z"/>
	<path d="M256.655,195.96c-0.138,0.983-0.292,1.967-0.463,2.928c9.5-1.602,14.243,5.475,14.243,21.229v7.464
		c0,0.995-0.691,1.484-2.085,1.484h-3.509c-1.423,0-2.134-0.489-2.134-1.484v-7.785c0-11.215-2.496-15.742-7.481-13.604
		c-0.778,7.121-1.133,14.233-1.067,21.354c0,1.041-0.71,1.568-2.133,1.568h-3.715c-1.423,0-2.138-0.55-2.138-1.646
		c-0.137-12.095,0.68-22.604,2.442-31.509h-1.116c-1.119,0-1.681-0.479-1.681-1.451v-2.766c0-0.962,0.629-1.442,1.88-1.442h20.909
		c1.356,0,2.036,0.48,2.036,1.442v2.57c0,1.097-0.698,1.646-2.087,1.646H256.655z M284.685,200.486c1.418,0,2.127,0.505,2.127,1.487
		v3.097c0,1.122-0.652,1.681-1.978,1.681h-2.493v21.229c0,1.019-0.697,1.534-2.091,1.534h-3.911c-1.429,0-2.137-0.506-2.137-1.489
		v-37.209c0-0.904,0.641-1.359,1.932-1.359h4.173c1.349,0,2.034,0.479,2.034,1.439v9.59H284.685z"/>
	<path d="M337.077,226.096c-0.641,0.812-1.453,0.9-2.434,0.284c-0.479-0.295-1.053-0.637-1.74-1.041l-2.238-1.326
		c-0.813,0.642-1.715,1.281-2.722,1.91c-0.994,0.618-2.001,1.18-3.018,1.658c-2.277,0.995-4.594,1.624-6.975,1.91
		c-2.379,0.282-4.514,0.159-6.437-0.365c-1.908-0.516-3.566-1.432-4.96-2.746c-1.383-1.316-2.083-3.222-2.083-5.739
		c0-4.366,2.746-8.265,8.243-11.716c-1.017-1.292-1.897-2.561-2.617-3.82c-0.732-1.255-1.223-2.468-1.475-3.645
		c-0.263-1.178-0.263-2.311,0-3.373c0.252-1.075,0.868-2.082,1.851-3.007c1.19-1.132,2.609-1.953,4.242-2.469
		c1.647-0.527,3.338-0.755,5.065-0.71c1.737,0.058,3.371,0.434,4.938,1.12c1.555,0.698,2.881,1.705,3.967,3.018
		c0.845,1.099,1.21,2.219,1.099,3.372c-0.127,1.146-0.562,2.321-1.304,3.512c-0.743,1.188-1.683,2.356-2.825,3.486
		c-1.13,1.143-2.308,2.242-3.532,3.315c1.863,1.979,4.38,4.137,7.522,6.458c1.429-1.416,2.594-2.833,3.522-4.251
		c0.57-0.996,1.45-1.179,2.639-0.561l2.241,1.2c1.018,0.537,1.246,1.302,0.709,2.284c-1.429,2.036-2.631,3.603-3.613,4.701
		c1.326,0.775,2.631,1.487,3.922,2.123c0.846,0.404,0.962,0.996,0.355,1.775L337.077,226.096z M312.614,221.921
		c1.382,1.715,3.119,2.333,5.212,1.854c2.081-0.482,4.447-1.691,7.1-3.612c-2.984-2.198-5.567-4.334-7.739-6.425
		c-2.173,1.279-3.669,2.676-4.492,4.171C311.858,219.409,311.837,220.746,312.614,221.921z M318.663,197.686
		c-1.155,0.184-1.98,0.572-2.495,1.168c-0.264,0.239-0.457,0.534-0.56,0.901c-0.103,0.355-0.103,0.79-0.023,1.303
		c0.092,0.506,0.309,1.088,0.663,1.739c0.354,0.661,0.87,1.417,1.555,2.273c0.744-0.558,1.406-1.085,1.979-1.565
		c0.583-0.479,1.075-0.925,1.475-1.325c0.812-0.881,1.245-1.635,1.304-2.263c0.044-0.629-0.127-1.123-0.516-1.476
		c-0.389-0.343-0.902-0.582-1.542-0.722C319.85,197.596,319.243,197.573,318.663,197.686z"/>
	<path d="M373.442,196.441c0.206-0.617-0.093-0.926-0.869-0.926h-11.592c-1.188-0.023-1.784-0.562-1.784-1.602v-2.444
		c0-1.181,0.597-1.763,1.784-1.728h19.068c1.462,0,2.105,0.708,1.933,2.125c0,3.042-0.113,5.923-0.357,8.619h5.753v-9.59
		c0-0.961,0.674-1.439,2.035-1.439h4.173c1.187,0,1.827,0.467,1.933,1.404v37.247c0,0.936-0.71,1.406-2.141,1.406h-3.862
		c-1.429,0-2.138-0.506-2.138-1.489v-21.274h-6.665c-1.864,9.478-5.887,16.727-12.048,21.758c-0.858,0.663-2.208,1.006-4.073,1.006
		h-2.855c-1.108,0-1.782-0.264-2.003-0.792c-0.226-0.513,0.176-1.142,1.192-1.86c5.772-4.974,9.532-11.25,11.295-18.828h-11.239
		c-1.188-0.024-1.784-0.563-1.784-1.604v-2.445c0-1.177,0.597-1.748,1.784-1.726h12.209
		C373.35,200.384,373.442,198.441,373.442,196.441z"/>
	<path d="M432.1,225.855c-8.345,1.873-17.869,2.811-28.592,2.811c-1.19,0-1.781-0.456-1.781-1.359v-2.569
		c0-1.044,0.615-1.579,1.839-1.603l1.269-0.046v-27.015h-1.576c-1.018,0-1.531-0.468-1.531-1.407v-3.006
		c0-0.937,0.591-1.405,1.781-1.405h23.963c1.188,0,1.781,0.469,1.781,1.405v3.135c0,0.855-0.628,1.278-1.886,1.278h-2.443v25.334
		c2.411-0.376,4.799-0.813,7.177-1.291v-29.336c0-0.881,0.572-1.324,1.725-1.324h4.688c1.109,0,1.669,0.443,1.669,1.324v36.958
		c0,1.18-0.79,1.775-2.389,1.775h-3.349c-1.566,0-2.344-0.528-2.344-1.568V225.855z M412.721,222.725
		c1.454-0.105,2.916-0.241,4.369-0.402v-26.248h-4.369V222.725z"/>
</g>
</svg>
